<?xml version="1.0" standalone="no"?>
<!DOCTYPE svg PUBLIC "-//W3C//DTD SVG 20010904//EN"
 "http://www.w3.org/TR/2001/REC-SVG-20010904/DTD/svg10.dtd">
<svg version="1.0" xmlns="http://www.w3.org/2000/svg"
 width="784.000000pt" height="784.000000pt" viewBox="0 0 784.000000 784.000000"
 preserveAspectRatio="xMidYMid meet">
<metadata>
Created by potrace 1.14, written by Peter Selinger 2001-2017
</metadata>
<g transform="translate(0.000000,784.000000) scale(0.100000,-0.100000)"
fill="#000000" stroke="none">
<path d="M3560 7253 c-13 -9 -36 -18 -50 -19 -14 -1 -34 -2 -45 -3 -28 -2 -49
-17 -41 -29 4 -7 18 -7 42 0 20 5 38 7 41 5 5 -5 -106 -62 -122 -62 -5 0 -16
-8 -23 -17 -7 -10 -18 -18 -23 -18 -5 0 -19 -9 -31 -19 -11 -11 -44 -32 -72
-47 l-52 -27 -55 27 c-30 15 -65 34 -79 43 -21 13 -32 13 -68 4 -81 -22 -154
-113 -166 -206 -8 -62 -18 -105 -25 -105 -3 0 -17 16 -31 36 -14 19 -50 53
-79 75 -46 33 -56 37 -64 24 -5 -10 -3 -21 7 -31 20 -19 39 -83 34 -114 -3
-22 -7 -18 -33 29 -30 55 -58 81 -71 68 -4 -4 -1 -15 7 -24 50 -60 59 -128 34
-256 -8 -43 -15 -94 -15 -112 0 -32 -3 -35 -42 -47 -89 -25 -118 -63 -118
-151 0 -100 -80 -168 -266 -225 -45 -15 -83 -34 -107 -56 -41 -38 -52 -69 -15
-42 58 42 84 55 122 62 23 3 46 9 51 13 6 4 43 20 83 36 40 16 88 43 107 62
37 36 65 110 65 174 0 30 6 42 28 56 30 21 105 46 97 33 -7 -11 31 -23 45 -15
5 3 10 2 10 -2 0 -5 -21 -26 -46 -47 -25 -21 -65 -65 -89 -97 -23 -32 -46 -55
-50 -51 -5 4 -5 1 -1 -6 9 -15 -53 -114 -67 -105 -6 3 -7 2 -4 -3 3 -6 -6 -28
-21 -50 -15 -22 -43 -66 -62 -97 -19 -32 -50 -80 -67 -108 -18 -28 -40 -66
-49 -85 -9 -19 -20 -34 -24 -34 -4 0 -10 -8 -14 -17 -3 -10 -10 -25 -15 -33
-82 -126 -128 -233 -160 -375 -13 -55 -26 -107 -29 -115 -3 -8 -6 -18 -6 -22
-1 -3 -4 -10 -8 -14 -5 -4 -8 -25 -8 -46 0 -23 -4 -37 -10 -33 -6 4 -8 -7 -4
-27 4 -22 3 -29 -4 -20 -7 11 -11 10 -16 -4 -4 -11 -2 -20 3 -22 16 -5 14 -15
-23 -94 -19 -40 -38 -85 -41 -100 -4 -16 -11 -26 -15 -23 -5 3 -11 1 -15 -5
-3 -5 -1 -10 4 -10 19 0 12 -14 -29 -59 -22 -25 -40 -52 -40 -62 0 -10 -9 -42
-19 -71 -11 -29 -25 -75 -31 -103 -14 -58 -20 -77 -53 -165 -38 -98 -48 -188
-29 -270 7 -29 4 -44 -21 -90 -48 -89 -99 -160 -110 -153 -6 3 -7 1 -3 -5 7
-11 -114 -159 -159 -194 -14 -11 -25 -29 -25 -40 0 -19 5 -20 69 -16 97 5 117
28 171 189 27 80 80 180 91 173 16 -10 9 -134 -11 -217 -47 -184 -160 -440
-231 -520 -46 -53 -46 -66 -2 -43 52 26 110 111 155 226 111 280 142 412 132
552 -7 97 -6 98 22 135 35 46 41 57 121 213 58 116 81 138 48 45 -22 -58 -33
-143 -40 -295 -7 -160 -22 -240 -70 -378 -35 -102 -38 -139 -11 -162 42 -34
94 149 112 395 7 100 27 159 64 185 31 22 47 13 31 -18 -6 -11 -15 -37 -20
-58 -5 -22 -24 -93 -41 -159 -51 -193 -58 -270 -55 -560 2 -268 5 -289 52
-435 26 -81 45 -116 78 -142 17 -13 24 -32 28 -75 3 -32 15 -82 27 -110 l23
-53 -38 -42 c-21 -24 -48 -48 -59 -55 -40 -23 -122 -33 -301 -37 -194 -4 -213
-7 -410 -68 -301 -92 -481 -160 -578 -217 -48 -29 -87 -56 -87 -62 0 -22 31
-19 67 5 21 14 43 26 50 26 7 0 13 4 13 9 0 15 116 60 390 151 297 99 351 111
510 116 74 2 182 7 239 10 l103 6 71 65 71 66 36 -41 c19 -23 46 -43 60 -46
80 -15 231 -58 265 -75 40 -19 65 -43 98 -93 32 -51 63 -63 165 -64 51 -1 96
-4 98 -7 6 -5 -11 -41 -27 -61 -15 -18 -59 -86 -59 -91 0 -17 32 1 55 30 14
20 35 43 45 53 10 9 20 26 22 37 3 16 11 19 37 17 83 -6 166 -119 176 -239 7
-76 35 -283 41 -305 3 -10 10 -18 16 -18 7 0 9 22 4 68 -24 237 -25 302 -5
359 30 87 23 152 -26 267 -6 13 -5 17 2 13 6 -4 86 -14 179 -22 93 -9 200 -23
237 -31 38 -8 70 -14 72 -14 10 0 15 -84 6 -116 -12 -43 -10 -47 12 -39 24 10
40 61 33 105 -3 22 -5 40 -2 40 2 0 30 -8 62 -19 71 -22 111 -44 195 -106 38
-28 65 -42 67 -35 5 15 -41 63 -95 101 -37 26 -43 35 -43 67 -1 52 -48 218
-114 407 l-56 160 0 205 c0 239 -8 267 -81 318 -48 33 -96 82 -121 123 l-16
25 49 -23 c26 -13 51 -27 54 -32 3 -5 19 -12 36 -16 16 -4 101 -34 187 -67
142 -53 238 -88 532 -193 52 -18 131 -49 175 -68 44 -20 107 -44 140 -55 97
-32 428 -106 529 -118 l57 -7 -60 -34 c-34 -19 -81 -54 -105 -77 -52 -52 -59
-86 -37 -178 21 -90 19 -145 -7 -205 -23 -53 -147 -253 -164 -264 -6 -3 -10
-10 -10 -15 0 -5 -8 -25 -18 -44 -25 -49 -47 -133 -55 -207 -7 -74 -38 -182
-90 -311 -20 -52 -34 -96 -32 -99 11 -11 29 11 54 65 67 146 92 225 113 354
21 136 39 180 146 349 125 199 141 254 109 384 -20 85 -19 93 8 68 43 -40 67
-45 265 -54 109 -5 213 -12 232 -14 67 -10 196 -37 335 -70 77 -19 156 -36
175 -40 108 -20 395 -117 510 -172 52 -25 113 -52 134 -59 22 -8 61 -28 88
-44 26 -17 51 -30 55 -30 14 0 159 -96 203 -134 26 -23 59 -51 73 -63 24 -20
26 -27 20 -71 -5 -48 15 -112 36 -112 14 0 19 23 9 42 -8 16 -8 78 -1 78 2 0
15 -8 29 -17 22 -14 27 -14 35 -2 12 19 11 25 -6 39 -8 7 -12 17 -8 23 3 5 1
7 -5 3 -6 -3 -13 -2 -17 3 -8 14 32 37 77 45 30 5 48 21 48 42 0 8 -65 4 -103
-7 -21 -5 -41 -17 -44 -25 -9 -23 -22 -17 -94 45 -59 51 -238 171 -255 171 -3
0 -18 8 -32 19 -15 10 -52 27 -82 39 -30 11 -99 41 -152 67 -117 55 -317 122
-493 164 -71 17 -159 38 -195 48 -219 55 -337 72 -577 82 -196 9 -212 12 -233
51 -22 42 131 138 255 161 90 16 203 59 249 94 22 17 54 50 70 73 28 40 30 48
35 175 5 105 10 138 24 158 9 13 31 45 48 72 17 26 34 47 38 47 14 0 31 52 41
123 13 96 56 440 69 552 6 50 14 178 17 285 9 265 0 294 -150 459 -84 92 -91
115 -57 172 13 21 18 42 14 59 -4 22 3 36 41 76 51 55 57 69 24 60 -13 -3 -27
-6 -31 -6 -5 0 -6 -4 -3 -9 3 -5 -1 -12 -9 -15 -19 -7 -22 0 -30 94 -3 41 -8
91 -10 110 -2 19 -6 68 -9 108 -6 75 -24 122 -77 197 -15 22 -31 58 -35 80
l-6 40 39 -40 c22 -22 59 -69 83 -105 64 -95 83 -120 93 -120 44 0 -158 298
-215 316 -10 3 -25 19 -34 35 -8 16 -41 55 -73 87 -83 82 -81 78 -96 243 -4
37 -17 89 -31 118 -13 29 -21 58 -17 64 3 6 1 7 -5 3 -7 -4 -12 -4 -12 1 0 26
-127 131 -186 153 -59 23 -126 31 -143 18 -9 -7 -4 2 11 20 15 18 32 50 38 70
5 20 19 52 31 71 12 20 17 37 11 43 -12 12 -60 -58 -73 -108 -12 -40 -84 -118
-120 -127 -20 -5 -20 -5 -2 16 10 12 23 27 30 34 43 47 53 162 15 182 -34 17
-122 -11 -122 -39 0 -6 -4 -10 -8 -10 -5 0 2 21 14 48 28 56 44 179 32 237
-11 53 -91 136 -148 155 -36 12 -52 12 -123 -3 -45 -10 -92 -20 -104 -23 -21
-6 -23 -3 -23 33 0 51 -17 72 -64 80 -36 6 -41 3 -76 -36 -24 -27 -40 -56 -44
-81 l-6 -39 -43 23 c-127 70 -135 76 -141 109 -8 42 -32 77 -54 77 -15 0 -45
-16 -94 -52 -14 -10 -21 -8 -42 15 -30 32 -71 36 -86 7 -9 -16 -21 -20 -62
-20 -28 0 -49 3 -45 6 9 9 -35 54 -53 54 -8 0 -27 -8 -40 -17z m433 -53 c6
-22 -9 -26 -33 -10 -13 9 -13 11 0 20 22 14 27 12 33 -10z m-384 -112 c1 -46
5 -100 10 -120 l9 -37 -33 25 c-28 21 -35 35 -44 88 -13 72 -14 110 -4 119 3
4 19 7 34 7 l27 0 1 -82z m760 68 c7 -8 11 -32 9 -53 -3 -37 -4 -38 -52 -47
-56 -10 -70 1 -54 43 22 59 72 88 97 57z m-647 -16 c-2 -8 -8 -42 -13 -75 -6
-33 -12 -61 -13 -63 -7 -7 -28 99 -22 114 3 8 2 12 -4 9 -6 -3 -10 -4 -10 -1
0 2 -3 11 -6 19 -4 12 3 15 33 14 28 -2 37 -6 35 -17z m94 -48 c-7 -65 -31
-180 -39 -189 -13 -13 -29 76 -24 136 6 87 20 120 48 118 20 -1 21 -5 15 -65z
m114 10 c5 -20 16 -58 24 -84 8 -27 11 -48 7 -48 -12 0 -58 90 -66 129 -6 26
-4 32 6 26 9 -6 11 -3 6 9 -4 10 -3 15 3 11 5 -3 14 -23 20 -43z m-430 16 c0
-13 6 -51 13 -85 l14 -63 -36 -11 c-20 -6 -51 -20 -68 -31 -28 -17 -38 -18
-68 -8 -19 6 -35 17 -35 24 0 7 14 41 31 75 24 48 43 70 77 92 55 35 72 36 72
7z m498 -23 c2 -23 -1 -51 -5 -63 -8 -20 -11 -13 -25 43 -15 66 -15 66 6 63
17 -2 22 -11 24 -43z m103 -24 c8 -9 34 -25 57 -35 23 -11 42 -23 42 -27 0 -5
7 -5 17 -2 10 4 14 2 10 -5 -4 -6 2 -26 14 -46 11 -19 17 -41 13 -47 -4 -7 -3
-9 3 -6 10 6 41 -21 42 -36 0 -4 10 -25 22 -46 15 -27 38 -48 75 -67 30 -16
54 -32 54 -37 0 -4 4 -6 9 -3 8 6 61 -55 61 -70 0 -4 11 -17 25 -30 19 -18 25
-33 25 -67 0 -23 -6 -49 -12 -55 -7 -7 -13 -18 -13 -25 0 -16 -49 -39 -68 -31
-9 3 -19 32 -27 82 -21 129 -37 148 -142 158 -73 8 -81 11 -159 71 -57 43 -89
85 -89 116 0 8 -7 28 -15 43 -16 30 -19 93 -9 157 6 32 10 37 28 31 11 -4 28
-14 37 -23z m465 -16 c3 -8 21 -23 39 -34 28 -16 35 -27 40 -65 7 -45 -8 -135
-24 -146 -5 -3 -11 -21 -15 -40 -5 -30 -1 -43 26 -80 57 -77 40 -78 -36 -3
-83 82 -89 100 -87 244 1 57 -2 79 -14 89 -25 20 -63 -12 -77 -66 -12 -44 -13
-45 -19 -17 -3 15 -4 44 -1 64 3 33 8 37 50 51 63 20 111 22 118 3z m-857
-161 c34 -63 32 -85 -3 -41 -24 30 -51 106 -60 172 -4 35 -3 33 13 -16 10 -31
32 -83 50 -115z m167 151 c-3 -8 -1 -15 4 -15 5 0 16 -16 24 -35 8 -19 20 -35
26 -35 7 0 10 -5 8 -11 -2 -6 11 -27 29 -46 39 -40 88 -141 96 -196 l6 -38
-29 18 c-165 105 -166 106 -179 172 -19 99 -14 201 11 201 6 0 8 -7 4 -15z
m-831 -3 c-6 -5 -29 -14 -52 -21 -38 -10 -47 -20 -85 -84 -42 -71 -43 -71 -46
-39 -7 67 81 152 158 152 19 0 30 -4 25 -8z m1670 -19 c19 -13 18 -14 -10 -7
-16 3 -36 12 -44 20 -12 11 -10 12 10 7 13 -3 33 -12 44 -20z m-359 -56 c1
-59 6 -85 19 -107 8 -13 7 -13 -9 -1 -23 19 -37 47 -43 85 -3 17 -12 39 -20
48 -13 15 -12 17 14 21 15 2 30 5 33 5 3 1 5 -22 6 -51z m-1078 18 c-11 -23
-13 -24 -27 -10 -14 14 -14 17 -1 25 29 19 41 12 28 -15z m-139 -4 c4 -5 19
-12 34 -15 31 -5 81 -42 83 -59 5 -45 21 -80 51 -111 19 -20 40 -36 45 -36 17
0 -17 -27 -47 -37 -23 -7 -41 -5 -80 9 -61 22 -153 23 -203 2 -42 -17 -87 -65
-134 -142 -62 -101 -88 -132 -128 -152 -22 -11 -40 -18 -40 -15 0 8 72 70 81
70 4 0 11 4 16 9 5 5 3 6 -4 2 -18 -10 -16 -3 6 36 22 37 51 163 51 222 0 28
12 59 46 115 26 42 54 81 63 86 52 32 145 41 160 16z m1343 -93 l3 -77 -23 22
c-21 19 -23 29 -20 79 2 31 11 64 19 74 17 21 16 22 21 -98z m240 92 c49 -14
61 -53 43 -137 -21 -97 -21 -98 -65 -52 -36 38 -37 42 -28 76 5 20 7 56 3 80
-7 47 -6 47 47 33z m-1154 -105 c12 -25 22 -47 22 -49 0 -3 -21 -9 -47 -14
-45 -10 -49 -9 -80 19 -19 16 -38 29 -44 29 -6 0 -7 5 -4 10 4 6 11 8 16 5 5
-4 9 -2 9 3 0 5 10 13 23 17 12 5 31 11 42 15 35 14 41 11 63 -35z m-223 -25
c3 -5 12 -7 20 -3 8 3 15 1 15 -3 0 -5 18 -20 40 -34 50 -30 51 -44 3 -35 -46
8 -113 50 -113 70 0 17 25 20 35 5z m-596 -78 c18 -26 21 -40 16 -72 -4 -22
-11 -42 -16 -46 -5 -3 -7 -9 -4 -13 7 -13 -23 -103 -43 -129 -9 -12 -28 -24
-40 -27 -23 -4 -23 -2 -17 38 4 23 16 78 27 121 13 52 19 100 16 141 l-4 62
22 -21 c11 -12 31 -36 43 -54z m1961 -37 c8 -21 -7 -65 -22 -65 -5 0 -6 4 -3
10 3 5 -1 20 -9 32 -9 12 -16 36 -16 52 0 29 0 29 21 10 12 -10 25 -28 29 -39z
m-971 8 c2 -1 -5 -1 -16 0 -11 0 -20 7 -20 14 0 10 4 10 16 1 9 -7 18 -13 20
-15z m-911 -29 c0 -15 -4 -22 -10 -16 -5 5 -6 16 -2 25 9 23 12 21 12 -9z
m1402 -79 c26 -8 55 -33 48 -41 -8 -7 -139 44 -159 62 -10 9 -22 29 -27 44
-10 28 -10 28 52 -15 35 -23 73 -46 86 -50z m-1031 55 c11 -6 4 -13 -27 -29
-23 -12 -48 -21 -57 -21 -18 0 -70 -28 -157 -84 -32 -20 -58 -34 -58 -31 0 13
74 115 83 115 6 0 7 3 4 6 -3 4 5 15 18 26 40 32 152 42 194 18z m381 -4 c47
-4 94 -10 105 -13 17 -6 16 -8 -10 -14 -61 -14 -123 -10 -134 9 -6 9 -11 11
-11 5 0 -10 -6 -10 -25 -1 -19 8 -35 8 -66 -1 -22 -7 -44 -10 -47 -7 -9 9 0
14 42 20 22 4 42 9 44 11 3 2 8 3 11 1 3 -2 44 -7 91 -10z m1297 -33 c-6 -35
-43 -103 -56 -103 -5 0 -11 24 -15 53 -6 47 -4 54 19 74 35 31 59 20 52 -24z
m-1087 27 c0 -5 -7 -7 -15 -4 -8 4 -15 8 -15 10 0 2 7 4 15 4 8 0 15 -4 15
-10z m78 -37 c35 -8 122 -55 122 -65 0 -4 -26 5 -57 21 -32 16 -75 36 -96 45
-20 10 -35 21 -32 27 4 5 13 3 21 -6 9 -8 27 -18 42 -22z m896 -33 c6 -50 5
-53 -9 -36 -15 20 -21 77 -8 89 9 10 10 8 17 -53z m-1474 26 c0 -8 -44 -54
-97 -103 -110 -100 -174 -164 -204 -208 -12 -16 -54 -54 -93 -83 -110 -82
-210 -184 -252 -259 -32 -58 -38 -77 -38 -133 -1 -52 2 -65 15 -68 15 -3 36
19 119 130 14 18 39 48 56 68 24 28 89 111 152 195 4 6 16 27 27 48 21 40 192
204 208 199 5 -1 6 1 3 6 -12 20 174 170 229 185 64 17 78 18 64 5 -8 -8 -32
-24 -54 -37 -62 -37 -144 -121 -172 -176 -62 -122 -115 -196 -157 -217 -22
-11 -53 -29 -68 -40 -16 -11 -33 -16 -38 -13 -6 4 -9 2 -8 -2 2 -5 -24 -36
-57 -69 -84 -82 -97 -102 -171 -249 -83 -166 -98 -238 -90 -417 12 -262 67
-467 133 -497 26 -12 57 -2 66 22 10 26 -3 109 -34 225 -26 99 -30 128 -25
187 10 119 59 254 184 505 139 280 175 338 235 384 43 33 204 136 212 136 2 0
32 19 67 43 84 57 112 99 104 154 l-5 41 57 6 c31 4 71 2 89 -3 17 -5 34 -7
37 -3 3 3 6 0 6 -6 0 -7 6 -12 14 -12 30 0 35 -70 8 -115 -28 -44 -77 -90
-127 -115 -24 -13 -52 -30 -62 -39 -10 -9 -45 -37 -78 -63 -102 -78 -257 -216
-338 -301 -175 -185 -256 -346 -308 -617 -19 -104 -19 -112 -4 -221 28 -200
73 -309 128 -309 12 0 38 16 58 36 l36 35 -3 -83 c-7 -170 -66 -352 -181 -564
-70 -128 -85 -185 -87 -314 -1 -84 3 -109 37 -215 97 -305 90 -274 84 -392 -4
-89 -10 -121 -35 -182 -19 -48 -28 -85 -25 -106 5 -37 -41 -163 -102 -285 -53
-104 -60 -215 -20 -312 5 -13 2 -18 -11 -19 -16 -1 -16 -2 -2 -6 23 -6 29 -27
35 -126 6 -93 5 -95 -43 -77 -52 20 -169 49 -224 55 -68 8 -152 25 -165 35
-14 10 -112 46 -163 60 l-44 11 7 49 c4 28 1 74 -5 107 -7 32 -18 116 -25 188
l-12 130 33 118 c38 132 45 237 19 271 -15 19 -15 19 -44 -2 l-30 -22 6 218
c3 120 1 264 -5 322 -6 66 -7 146 -1 215 5 61 13 189 18 285 8 132 15 188 30
228 29 79 32 152 5 152 -15 0 -16 11 -10 103 4 56 12 208 17 337 14 400 46
540 162 733 65 108 382 418 409 401 6 -4 9 -3 6 2 -4 5 17 25 45 44 55 37 169
120 177 130 3 3 32 28 65 57 33 28 68 65 78 82 17 29 17 31 -3 51 -11 11 -20
22 -20 23 0 2 33 16 73 32 39 15 76 32 82 36 15 14 45 10 45 -5z m1103 -18 c9
-11 17 -27 17 -35 0 -11 -8 -9 -31 9 -17 13 -43 31 -57 41 l-27 18 40 -7 c22
-3 48 -15 58 -26z m-1603 -21 c0 -13 -6 -32 -14 -43 -13 -17 -13 -14 -3 24 13
47 17 52 17 19z m767 -92 c-15 -32 -36 -47 -230 -165 -38 -23 -71 -39 -74 -37
-11 12 54 121 97 160 48 45 129 100 170 115 21 8 27 6 39 -16 11 -21 11 -30
-2 -57z m462 -1 c35 -29 62 -75 68 -114 8 -57 9 -87 3 -115 -5 -26 -7 -23 -14
26 -13 103 -89 143 -183 98 -26 -13 -49 -27 -51 -30 -2 -4 -31 -31 -65 -60
-53 -46 -57 -42 -9 9 58 63 120 210 107 253 -6 19 -3 18 53 -10 32 -16 73 -42
91 -57z m151 76 c0 -5 -2 -10 -4 -10 -3 0 -8 5 -11 10 -3 6 -1 10 4 10 6 0 11
-4 11 -10z m-116 -48 c-4 -6 -53 32 -54 41 0 5 13 -2 29 -15 15 -13 27 -25 25
-26z m211 2 c42 -26 79 -52 82 -60 2 -7 -2 -22 -10 -34 -14 -20 -15 -20 -35
19 -11 21 -18 42 -14 47 4 4 2 4 -4 1 -10 -6 -104 56 -104 68 0 9 10 4 85 -41z
m-1169 -6 c4 -6 -2 -19 -15 -29 -12 -10 -22 -22 -22 -26 1 -8 -131 -119 -191
-161 -18 -13 -64 -45 -102 -72 -58 -41 -72 -47 -85 -37 -14 10 -14 10 -3 -4
10 -14 8 -19 -15 -34 -40 -26 -146 -129 -294 -285 -71 -75 -147 -210 -164
-290 -4 -19 -33 -89 -65 -155 -31 -66 -67 -156 -80 -200 -31 -112 -79 -266
-90 -290 -16 -35 -49 -185 -74 -336 -24 -145 -47 -217 -116 -354 -36 -74 -38
-67 -5 21 40 107 56 191 55 294 -1 93 0 97 54 230 31 74 56 143 56 154 0 10 4
35 10 55 5 20 26 104 46 186 20 83 37 155 38 160 6 23 28 74 57 130 42 82 200
348 214 360 6 6 17 25 25 43 7 19 18 39 24 45 6 7 26 36 45 65 18 28 37 52 41
52 4 0 11 8 14 18 18 49 88 146 144 199 62 58 239 166 376 230 98 46 111 49
122 31z m1089 -58 l5 -35 -11 38 c-6 20 -15 37 -20 37 -5 0 -9 5 -9 12 0 26
30 -18 35 -52z m421 -6 c-3 -8 -13 -14 -23 -13 -11 0 -13 3 -5 6 6 2 10 9 6
14 -3 5 0 9 5 9 6 0 12 12 12 28 l2 27 4 -28 c3 -16 2 -35 -1 -43z m-521 36
c10 -11 16 -20 13 -20 -3 0 -13 9 -23 20 -10 11 -16 20 -13 20 3 0 13 -9 23
-20z m332 -45 c0 -22 -5 -19 -23 18 -17 32 -17 32 3 14 11 -9 20 -24 20 -32z
m663 13 c74 -23 183 -120 196 -175 4 -16 13 -40 20 -55 8 -15 16 -69 18 -121
5 -113 14 -134 95 -212 34 -32 59 -60 57 -62 -1 -2 -18 3 -37 11 -23 10 -48
36 -79 83 -25 37 -50 74 -57 81 -15 15 -17 26 -34 132 -11 74 -56 191 -78 204
-6 4 -9 11 -7 15 3 4 0 8 -7 8 -11 0 -115 60 -127 72 -5 6 -9 7 -55 10 -29 1
-34 17 -7 24 19 5 51 0 102 -15z m-25 -80 c62 -32 96 -58 89 -70 -4 -6 -2 -8
3 -5 6 4 16 1 22 -7 19 -22 61 -153 61 -188 0 -32 -1 -32 -95 62 -54 54 -93
101 -90 108 3 7 0 10 -5 7 -5 -3 -32 11 -58 32 -27 21 -65 47 -83 57 l-34 20
30 7 c43 11 113 0 160 -23z m-200 -44 c90 -44 217 -144 212 -167 -1 -6 4 -11
11 -12 6 0 45 -35 86 -77 64 -68 74 -82 78 -123 7 -61 43 -110 100 -137 31
-15 62 -43 92 -82 25 -33 46 -56 46 -52 0 4 11 -6 25 -22 14 -17 25 -34 25
-39 0 -6 8 -17 18 -26 22 -20 78 -124 71 -131 -3 -3 -37 -2 -75 3 -40 5 -73 5
-78 0 -20 -19 -26 -7 -24 47 2 37 -1 58 -9 61 -32 11 -43 -69 -46 -332 -2
-110 -6 -146 -18 -165 -24 -38 -28 -77 -12 -137 26 -101 11 -106 -35 -13 -62
124 -66 227 -12 290 24 27 24 30 6 30 -27 0 -67 -76 -78 -147 -11 -67 -10 -70
24 -148 19 -44 51 -105 71 -136 42 -66 166 -193 231 -238 53 -37 64 -54 82
-130 18 -75 17 -104 -3 -146 -25 -52 -47 -47 -39 10 9 60 -6 59 -68 -5 -27
-27 -56 -50 -66 -50 -18 0 -54 32 -83 74 -27 39 -59 34 -99 -16 -18 -23 -32
-45 -31 -48 5 -12 -38 -50 -58 -50 -11 0 -17 4 -14 10 3 5 0 7 -9 4 -23 -9
-56 53 -56 103 0 22 16 86 35 142 38 109 39 111 28 111 -13 0 -59 -81 -88
-154 -24 -62 -26 -73 -16 -115 19 -77 32 -100 68 -122 44 -27 80 -32 108 -13
12 8 25 11 30 7 4 -5 5 -3 1 4 -6 11 28 43 47 43 4 0 5 -16 1 -35 -8 -43 6
-45 29 -5 18 30 40 32 51 4 6 -17 -3 -44 -15 -44 -14 0 -10 -67 6 -107 19 -44
19 -43 -2 -43 -34 -1 -82 -35 -170 -120 -116 -110 -158 -143 -201 -154 -21 -5
-37 -16 -39 -27 -3 -11 -21 -26 -39 -35 -32 -15 -44 -37 -26 -47 4 -3 48 8 97
24 125 39 146 38 220 -11 48 -32 113 -61 151 -67 34 -6 75 3 157 33 49 18 54
18 61 -4 4 -10 22 -36 42 -58 81 -91 82 -155 2 -251 l-26 -32 -27 54 c-30 58
-74 105 -117 122 -43 19 -40 3 8 -40 79 -69 105 -147 107 -317 2 -108 0 -119
-22 -152 -31 -44 -99 -90 -171 -115 -92 -30 -256 -23 -470 21 -269 56 -359 81
-492 137 -67 29 -159 64 -203 80 -195 67 -364 129 -410 149 -27 12 -112 42
-187 67 -76 26 -135 50 -132 54 3 5 -1 7 -8 4 -19 -6 -89 45 -109 80 -12 20
-19 64 -24 130 -6 93 -5 99 10 78 9 -13 22 -38 31 -58 8 -19 19 -35 25 -35 28
0 -30 157 -71 191 -33 28 -42 67 -35 159 6 66 3 108 -14 190 -33 166 -39 210
-30 210 5 0 9 -11 9 -25 0 -33 42 -75 73 -75 24 0 80 48 105 89 18 30 37 91
67 207 38 154 41 205 15 304 -25 98 -23 127 20 271 28 97 89 227 116 249 8 7
14 17 14 22 0 5 6 15 13 23 6 7 23 27 36 44 23 31 53 39 80 22 7 -5 11 -14 7
-20 -11 -18 -8 -138 4 -178 7 -21 22 -48 33 -61 29 -31 30 -54 6 -114 -20 -50
-27 -135 -16 -183 22 -93 29 -157 25 -228 -6 -93 -31 -189 -56 -214 -9 -9 -17
-19 -17 -22 0 -3 -16 -31 -36 -61 -19 -30 -48 -86 -63 -125 -15 -38 -32 -78
-37 -87 -5 -10 -9 -33 -9 -51 0 -25 -9 -42 -40 -72 -49 -48 -52 -64 -6 -37 19
11 36 18 39 16 7 -7 -23 -84 -72 -185 -46 -97 -51 -114 -21 -76 11 14 20 30
20 35 0 5 6 12 13 15 21 8 98 168 104 217 4 34 16 56 48 90 23 25 54 67 70 94
29 49 65 177 65 230 0 17 11 66 24 110 33 111 53 210 69 348 15 125 10 192
-18 252 -9 19 -14 40 -10 47 4 6 7 39 6 72 -1 52 -6 67 -31 99 -17 20 -30 45
-30 56 0 10 19 35 43 56 l42 37 8 -33 c4 -18 8 -38 9 -45 1 -7 5 -10 9 -7 4 2
10 0 14 -6 3 -5 24 -14 47 -21 56 -15 121 3 198 53 25 16 130 31 130 19 0 -4
-42 -28 -93 -54 -99 -50 -158 -102 -175 -155 l-11 -34 55 51 c54 49 126 91
158 91 8 0 17 4 20 9 3 4 25 11 50 14 38 6 105 31 182 69 57 27 82 -22 42 -81
-16 -23 -52 -49 -113 -80 -97 -50 -169 -110 -163 -138 2 -13 15 -19 46 -21 61
-4 126 35 203 124 36 41 61 54 137 67 65 12 173 9 187 -5 4 -4 10 -33 14 -66
l7 -59 -30 12 c-81 34 -148 24 -256 -36 -36 -20 -90 -44 -120 -54 -30 -10 -82
-34 -115 -53 -53 -32 -66 -36 -122 -34 -73 3 -83 -12 -21 -28 35 -10 50 -8
103 9 57 20 64 20 93 6 41 -21 193 -37 269 -29 81 8 190 -11 198 -36 3 -9 17
-22 32 -29 22 -10 29 -9 42 3 14 15 14 16 -1 16 -22 0 -51 47 -45 75 2 13 0
29 -4 36 -4 7 -3 22 3 32 14 27 10 192 -6 230 -7 18 -20 38 -29 45 -19 16
-173 22 -224 9 l-32 -8 2 48 c1 26 -2 59 -6 71 -9 23 -8 24 50 19 61 -5 167
-40 194 -63 32 -28 49 -11 49 51 0 79 -83 112 -254 101 -87 -6 -193 -35 -226
-61 -8 -7 -56 -15 -107 -18 -80 -5 -100 -10 -159 -41 -73 -39 -144 -48 -180
-22 -16 12 -19 26 -18 96 1 57 5 84 16 93 33 27 50 71 55 143 5 66 3 80 -22
135 l-27 61 17 61 c9 33 14 73 11 90 -4 20 1 41 16 68 12 22 25 39 28 39 4 0
17 9 30 20 13 11 29 20 37 20 7 0 65 27 129 61 99 52 120 60 152 55 27 -5 50
0 86 17 40 18 62 22 125 19 66 -3 87 -9 166 -48z m-667 15 c-6 -16 -12 -28
-15 -26 -7 7 8 57 18 57 4 0 3 -14 -3 -31z m-177 -9 l24 -19 -29 5 c-16 3 -38
11 -50 19 -20 15 -20 15 6 15 14 0 36 -9 49 -20z m-290 -37 c-6 -10 -28 -37
-50 -61 -22 -23 -45 -52 -52 -63 -6 -11 -43 -57 -82 -102 -79 -89 -83 -94
-126 -182 -17 -33 -51 -96 -76 -140 -65 -116 -131 -286 -149 -385 -10 -60 -30
-129 -51 -185 -13 -33 -29 -100 -35 -150 -6 -49 -15 -107 -21 -128 -10 -39
-49 -73 -73 -64 -25 10 -81 266 -78 362 3 107 57 315 112 426 77 158 219 319
450 510 95 79 226 178 238 179 1 0 -2 -8 -7 -17z m269 -31 c34 -36 50 -140 35
-216 l-8 -40 -23 30 c-14 17 -24 42 -24 62 0 36 -19 45 -22 10 -3 -51 5 -84
34 -134 26 -47 28 -58 19 -86 -25 -79 -29 -216 -7 -286 5 -14 -8 -34 -49 -77
-30 -32 -57 -66 -60 -76 -5 -14 -10 -15 -34 -6 -54 20 -89 0 -152 -89 -150
-211 -223 -465 -174 -604 21 -59 19 -159 -5 -260 -35 -148 -59 -207 -101 -253
l-39 -42 -25 28 c-14 15 -25 37 -25 47 0 21 -30 90 -39 90 -3 0 -4 42 -1 92 5
83 10 102 48 179 23 48 53 101 67 117 18 22 22 33 14 38 -15 9 -82 -63 -108
-115 -32 -62 -53 -134 -52 -181 1 -90 -7 -113 -47 -132 -43 -21 -85 -82 -102
-151 -13 -50 -10 -153 10 -297 6 -47 13 -104 14 -128 2 -23 6 -45 9 -49 12
-12 7 -147 -8 -212 -9 -35 -32 -95 -52 -135 -72 -142 -65 -132 -74 -110 -4 11
-7 43 -7 70 -1 47 -29 159 -87 344 -41 128 -48 184 -34 265 11 66 43 168 59
190 28 36 122 240 149 320 46 139 52 178 57 370 5 185 18 305 35 305 5 0 6 6
3 13 -5 13 85 168 167 287 88 128 179 341 179 418 0 59 21 152 33 145 6 -4 7
-1 2 6 -9 16 70 99 135 143 25 17 50 36 55 42 6 6 32 31 59 55 47 43 49 43
103 38 36 -4 62 -12 73 -25z m-1091 -109 c-8 -10 -20 -22 -26 -26 -7 -4 -13
-13 -13 -18 0 -23 -213 -276 -218 -260 -7 21 56 137 101 184 74 80 200 176
156 120z m148 -125 c-77 -161 -180 -348 -188 -342 -5 3 -6 -2 -3 -10 3 -8 -4
-32 -15 -55 -12 -22 -21 -51 -21 -64 0 -12 -4 -27 -8 -33 -5 -5 -19 -42 -32
-82 -19 -62 -22 -86 -17 -170 3 -57 14 -124 26 -162 26 -78 39 -190 23 -190
-21 0 -62 106 -77 204 -9 55 -18 103 -20 107 -3 3 -7 67 -11 140 -6 123 -4
143 19 237 14 56 34 115 45 130 10 15 35 62 56 104 51 106 201 265 252 267 5
1 -8 -36 -29 -81z m453 -109 c-6 -18 -10 -52 -10 -73 0 -36 -28 -144 -40 -156
-3 -3 -26 -48 -52 -100 -45 -91 -178 -304 -178 -284 1 5 9 43 19 84 24 103 83
245 145 354 29 50 59 105 68 121 23 45 52 94 55 91 2 -1 -2 -18 -7 -37z m570
-133 c16 -43 -5 -156 -30 -156 -11 0 -13 64 -4 134 7 51 20 59 34 22z m1412
-28 c8 -7 18 -22 22 -33 6 -16 1 -14 -23 9 -17 17 -31 31 -31 33 0 7 17 2 32
-9z m-1502 -262 c0 -2 -8 -10 -17 -17 -16 -13 -17 -12 -4 4 13 16 21 21 21 13z
m933 -28 c15 -6 27 -16 27 -23 0 -10 -9 -9 -37 4 -21 10 -49 22 -63 29 -23 10
-22 10 10 6 19 -3 47 -10 63 -16z m-2747 -145 c-9 -51 -20 -226 -27 -418 l-11
-330 -39 -65 c-50 -86 -69 -132 -108 -270 -53 -185 -60 -194 -79 -109 -19 81
-14 138 19 234 27 78 60 205 75 285 6 29 24 97 53 193 23 73 27 137 10 137 -6
0 -19 -4 -29 -10 -17 -9 -17 -7 -5 38 7 26 20 70 28 97 9 28 28 88 42 135 26
88 77 199 83 181 2 -5 -4 -49 -12 -98z m3437 77 c9 -1 17 -5 17 -10 0 -9 -19
-7 -105 9 l-50 10 60 -4 c33 -3 68 -5 78 -5z m-33 -63 c37 -10 46 -17 53 -42
5 -16 13 -44 18 -61 5 -17 9 -43 9 -58 0 -26 -2 -27 -41 -22 -32 4 -55 -2
-105 -25 -35 -17 -66 -34 -69 -40 -8 -12 -25 -12 -25 0 0 5 6 16 14 23 20 21
46 74 46 97 0 11 -13 29 -30 41 -32 23 -35 34 -20 74 8 23 15 26 57 25 27 0
68 -6 93 -12z m-1665 -65 c-2 -3 2 -10 10 -16 8 -6 18 -32 21 -59 6 -39 4 -46
-8 -42 -23 9 -48 59 -55 112 l-6 48 22 -19 c11 -11 19 -21 16 -24z m1527 -84
c-5 -21 -6 -21 -13 -2 -13 33 -11 48 5 35 8 -7 12 -21 8 -33z m-982 -42 c0 -2
-8 -10 -17 -17 -16 -13 -17 -12 -4 4 13 16 21 21 21 13z m1183 -37 c-5 -4 -26
-3 -48 1 l-40 8 48 -1 c26 0 44 -4 40 -8z m-863 -36 c0 -22 9 -49 20 -63 11
-14 20 -28 20 -31 0 -11 -133 -10 -189 1 -80 15 -81 29 -3 56 36 13 69 29 74
36 4 7 8 9 8 3 0 -6 3 -6 8 1 8 12 43 33 55 34 4 0 7 -17 7 -37z m-806 -136
c-1 -93 -14 -207 -23 -207 -4 0 -15 45 -25 100 -17 85 -18 105 -7 142 30 99
56 82 55 -35z m1538 78 c4 -5 8 -20 8 -32 0 -19 -5 -21 -45 -21 -24 0 -49 -3
-55 -7 -13 -8 -13 11 1 36 17 33 74 48 91 24z m125 -17 c-3 -8 -6 -5 -6 6 -1
11 2 17 5 13 3 -3 4 -12 1 -19z m-677 -29 c0 -12 -6 -16 -20 -12 -29 8 -26 30
5 30 8 0 15 -8 15 -18z m603 -58 c37 -10 68 -21 67 -24 -3 -50 4 -67 45 -113
24 -28 41 -55 37 -59 -4 -5 -2 -5 5 -1 7 4 23 -8 40 -29 15 -20 36 -46 45 -57
10 -11 27 -46 39 -77 20 -52 21 -67 14 -225 -10 -269 -34 -498 -83 -821 l-8
-50 -17 35 c-10 19 -33 57 -52 84 -38 52 -44 72 -20 62 27 -10 27 20 0 60 -22
33 -26 49 -25 104 1 36 1 78 1 93 -1 37 -50 87 -85 87 -21 0 -26 5 -26 24 0
13 -7 40 -15 60 -13 30 -13 43 -3 82 12 43 14 45 40 40 16 -3 28 -1 28 5 0 6
5 7 10 4 17 -11 59 22 73 58 27 64 29 108 10 192 l-18 80 -125 128 c-69 70
-126 130 -128 131 -6 7 -7 134 -2 131 3 -2 12 0 20 6 21 13 56 10 133 -10z
m-3544 -68 c-11 -31 -19 -64 -19 -74 0 -10 -5 -21 -11 -25 -7 -4 -9 0 -6 12 3
11 8 36 12 57 7 44 25 87 35 87 4 0 -1 -25 -11 -57z m-211 -325 c-4 -76 -14
-118 -53 -233 -26 -77 -50 -144 -53 -150 -4 -5 -7 -17 -9 -25 -4 -29 -35 -100
-43 -100 -14 0 -23 66 -15 117 4 26 20 82 35 125 16 42 40 119 55 170 25 83
70 188 83 188 3 0 2 -42 0 -92z m359 -5 c-3 -10 -5 -4 -5 12 0 17 2 24 5 18 2
-7 2 -21 0 -30z m-41 -75 c-2 -38 -14 -83 -28 -113 -13 -27 -49 -103 -78 -167
-49 -107 -57 -118 -81 -118 -14 0 -38 -9 -53 -21 l-26 -20 1 48 c0 26 3 66 8
88 l7 40 7 -44 c11 -61 24 -83 50 -79 28 4 39 28 78 167 38 138 97 281 115
281 2 0 3 -28 0 -62z m1118 -234 l-1 -117 -30 -12 c-17 -7 -34 -18 -38 -25
-26 -43 -34 100 -9 173 15 43 54 97 71 97 4 0 8 -52 7 -116z m608 68 c-6 -15
-13 -39 -16 -54 -8 -37 -84 -148 -101 -148 -4 0 -3 6 2 13 5 6 15 32 22 57 16
55 93 189 99 172 2 -7 -1 -25 -6 -40z m-1747 -226 c-12 -138 -14 -224 -9 -311
9 -131 8 -578 -1 -770 -7 -137 -21 -266 -33 -310 -10 -37 -46 -50 -37 -13 14
59 5 544 -11 570 -4 6 -11 64 -15 127 -5 64 -11 152 -15 196 -4 51 -1 124 9
200 14 114 11 234 -7 263 -4 6 24 78 61 161 81 178 83 176 58 -113z m3384 140
c8 -10 8 -21 1 -40 -14 -39 -12 -89 5 -112 8 -10 15 -32 15 -49 0 -29 0 -29
-18 -10 -11 11 -29 44 -41 74 l-21 55 19 39 c11 22 18 44 15 49 -9 14 13 9 25
-6z m-2191 -156 l0 -25 -8 25 c-4 14 -8 39 -8 55 l0 30 8 -30 c4 -16 8 -41 8
-55z m-40 -51 c12 -51 10 -184 -3 -197 -3 -3 -19 7 -35 24 -51 50 -58 166 -14
215 26 28 37 19 52 -42z m2212 -54 c29 -31 37 -31 67 -3 l23 22 28 -21 c23
-17 27 -28 26 -67 0 -25 -3 -48 -6 -52 -3 -3 -21 2 -39 11 -51 27 -167 9 -294
-45 -82 -35 -126 -33 -78 3 16 12 53 46 83 76 105 104 148 121 190 76z m-3506
-92 c-3 -49 -8 -91 -10 -95 -7 -10 -6 -176 0 -260 l6 -73 -19 53 c-10 28 -21
77 -24 108 -3 32 -12 61 -21 67 -13 11 -11 27 19 142 19 72 35 133 35 138 0 4
4 7 10 7 6 0 8 -33 4 -87z m3610 -72 c27 -18 55 -55 56 -73 0 -14 -94 -55
-151 -67 -31 -7 -70 -9 -85 -5 -32 7 -96 39 -131 65 l-22 16 22 12 c54 28 196
71 237 71 28 0 56 -7 74 -19z m-2328 -153 c1 -117 16 -158 78 -217 20 -19 36
-40 36 -46 0 -13 48 -105 66 -126 8 -9 11 -19 7 -23 -5 -4 -3 -6 2 -5 6 2 38
-18 72 -45 43 -34 66 -60 74 -85 8 -23 12 -100 11 -216 0 -99 3 -197 8 -217 4
-21 7 -38 5 -38 -1 0 -24 37 -50 83 -32 55 -62 93 -92 115 -54 41 -76 76 -102
162 -23 73 -77 169 -124 218 -36 37 -47 39 -72 12 -14 -16 -17 -30 -12 -71 10
-86 50 -150 142 -231 79 -69 85 -78 115 -158 36 -92 72 -163 102 -194 24 -26
78 -140 78 -165 0 -11 -5 -32 -10 -47 -10 -26 -11 -26 -31 -8 -35 31 -104 125
-140 189 -99 178 -230 253 -447 255 -29 0 -54 -7 -73 -21 -31 -22 -37 -16 -16
16 22 33 64 151 102 290 22 82 45 145 63 170 99 142 162 325 162 470 l0 79 22
-22 c20 -19 22 -33 24 -124z m-1783 -10 c-16 -31 -39 -58 -56 -66 -40 -19 -45
-8 -11 26 16 16 42 45 58 65 16 20 31 35 34 33 2 -3 -9 -29 -25 -58z m1881
-83 c5 -90 -11 -90 -20 0 -3 33 -7 66 -9 73 -3 7 -1 27 2 45 l7 32 8 -37 c4
-20 9 -71 12 -113z m-1464 -3 c-1 -20 -7 -64 -15 -97 l-15 -60 6 90 c6 117 6
115 16 109 4 -3 8 -22 8 -42z m56 -149 c12 -35 19 -97 25 -228 4 -99 11 -220
15 -270 7 -95 8 -134 5 -175 -1 -21 -5 -17 -26 25 -75 151 -105 374 -77 563
12 79 26 132 36 132 2 0 12 -21 22 -47z m249 -288 c-3 -27 -13 -77 -24 -110
l-18 -60 -8 38 c-12 61 -1 182 20 214 l19 28 8 -30 c5 -17 6 -52 3 -80z m1105
-50 c15 -33 32 -77 38 -97 l10 -37 -48 37 c-77 59 -133 185 -99 219 16 16 63
-42 99 -122z m201 -319 c16 -19 81 -143 95 -181 7 -19 13 -55 9 -55 -6 0 -97
153 -115 195 -13 28 -27 59 -33 70 -9 19 -9 19 9 5 10 -8 26 -24 35 -34z
m-1357 -73 c5 -62 4 -72 -9 -67 -9 4 -15 19 -15 38 0 32 11 109 15 104 1 -2 5
-35 9 -75z m1014 28 c2 -6 12 -11 21 -11 28 0 95 -70 130 -137 18 -33 73 -109
122 -167 87 -104 129 -170 129 -201 0 -18 -6 -18 -85 -5 -33 5 -109 15 -170
20 -238 22 -250 26 -266 79 -6 20 -15 92 -19 160 -7 113 -10 125 -33 148 -23
23 -28 24 -57 14 l-33 -11 6 43 c4 29 14 49 33 66 26 22 34 23 123 19 58 -3
97 -10 99 -17z m-1061 -107 l3 -56 -36 44 c-32 38 -34 43 -18 46 11 2 23 8 29
13 17 16 20 10 22 -47z m763 -86 c11 -26 20 -62 20 -80 0 -37 23 -80 81 -148
71 -84 45 -140 -51 -108 l-41 13 -4 95 c-3 63 -13 123 -30 180 -20 66 -24 95
-18 135 l7 50 8 -45 c4 -25 17 -66 28 -92z m109 38 c6 -8 14 -38 17 -67 l6
-54 -22 34 c-12 19 -26 45 -31 59 -14 37 6 57 30 28z m-885 -68 c10 -42 -10
-33 -28 12 -21 52 -20 59 3 35 10 -11 21 -32 25 -47z m81 -67 c-6 -15 -7 -14
-16 1 -7 12 -6 32 3 60 l13 43 3 -44 c2 -24 0 -51 -3 -60z m1520 27 c15 -40
30 -80 35 -88 6 -13 29 -102 46 -178 8 -36 -10 -18 -30 30 -10 24 -32 75 -49
113 -20 46 -33 92 -35 133 -2 34 -2 62 1 62 3 0 17 -33 32 -72z m-16 -183 c17
-47 38 -96 47 -110 19 -30 14 -30 -50 -7 -47 16 -50 20 -76 85 -26 62 -26 67
-9 67 10 0 26 11 35 25 9 14 18 25 19 25 2 0 17 -38 34 -85z m-986 -74 c48
-17 99 -31 112 -31 20 0 25 -5 25 -24 0 -23 -1 -24 -99 -21 -54 2 -108 8 -120
14 -11 6 -34 32 -52 57 l-32 46 39 -5 c22 -3 79 -19 127 -36z m388 -76 c22
-49 25 -89 15 -152 -7 -39 -26 -61 -26 -30 0 14 -56 95 -80 115 -19 15 -95 52
-109 52 -6 0 -11 9 -11 21 0 14 5 19 14 16 55 -21 166 -12 166 13 0 21 12 8
31 -35z"/>
</g>
</svg>
